# xmcd CD database file
# Copyright (C) 1995-1998 Ti Kan
#
# Track frame offsets:
#	153
#	18700
#	50495
#	70562
#	88909
#	110628
#	127821
#	145688
#	166837
#	186756
#	204473
#	224100
#	238669
#	256440
#	274453
#	293714
#	314319
#
# Disc length: 4427 seconds
#
# Revision: 1
# Processed by: cddbd v1.4PL0 Copyright (c) Steve Scherf et al.
# Submitted via: CDex 1.30
#
DISCID=07114911
DTITLE=Various Blues - Monday Nite Blues #56
DYEAR=2001
DGENRE=Blues
TTITLE0=Mel Waiters
TTITLE1=Ronnie Lovejoy
TTITLE2=Tyrone davis
TTITLE3=Kenne' Wayne
TTITLE4=Charles Wilson
TTITLE5=Peggy Scott
TTITLE6=O.B. BUCHANNA
TTITLE7=ARTIE WHITE
TTITLE8=MARVIN SEASE
TTITLE9=JIMMY MCRACKLIN
TTITLE10=SWEET MISS COFY
TTITLE11=PATRICK HENRY
TTITLE12=TONY TROUTMAN
TTITLE13=JIMMY V
TTITLE14=CHUCK STRONG
TTITLE15=WILSON MEADOW
TTITLE16=RUE DAVIS
EXTD=YEAR: 2001  ID3G:   0
EXTT0=
EXTT1=
EXTT2=
EXTT3=
EXTT4=
EXTT5=
EXTT6=
EXTT7=
EXTT8=
EXTT9=
EXTT10=
EXTT11=
EXTT12=
EXTT13=
EXTT14=
EXTT15=
EXTT16=
PLAYORDER=
